<svg height="396pt" viewBox="0 -72 396.43477 396" width="396pt" xmlns="http://www.w3.org/2000/svg"><path d="m347.644531 245.976562h-299.339843c-15.367188 0-27.824219-12.457031-27.824219-27.824218v-155.976563c0-15.367187 12.457031-27.824219 27.824219-27.824219h299.339843c15.363281 0 27.820313 12.457032 27.820313 27.824219v155.976563c0 15.367187-12.457032 27.824218-27.820313 27.824218zm0 0" fill="#0e65e5"/><path d="m347.640625 252.804688h-299.332031c-19.109375 0-34.65625-15.546876-34.65625-34.65625v-155.972657c0-19.105469 15.546875-34.652343 34.65625-34.652343h299.332031c19.105469 0 34.65625 15.546874 34.65625 34.65625v155.972656c-.003906 19.105468-15.550781 34.652344-34.65625 34.652344zm-299.332031-211.628907c-11.582032 0-21 9.421875-21 21.003907v155.972656c0 11.578125 9.417968 21 21 21h299.332031c11.582031 0 21-9.421875 21-21v-155.972656c0-11.582032-9.417969-21.003907-21-21.003907zm0 0" fill="#0e65e5"/><path d="m347.644531 232.324219h-299.339843c-15.367188 0-27.824219-12.457031-27.824219-27.824219v-155.980469c0-15.363281 12.457031-27.820312 27.824219-27.820312h299.339843c15.363281 0 27.820313 12.457031 27.820313 27.820312v155.980469c0 15.367188-12.457032 27.824219-27.820313 27.824219zm0 0" fill="#94c1ff"/><path d="m347.640625 239.152344h-299.332031c-19.109375 0-34.65625-15.546875-34.65625-34.65625v-155.972656c0-19.105469 15.546875-34.652344 34.65625-34.652344h299.332031c19.105469 0 34.65625 15.546875 34.65625 34.652344v155.976562c-.003906 19.105469-15.550781 34.652344-34.65625 34.652344zm-299.332031-211.628906c-11.582032 0-21 9.421874-21 21v155.976562c0 11.578125 9.417968 21 21 21h299.332031c11.582031 0 21-9.421875 21-21v-155.976562c0-11.578126-9.417969-21-21-21zm0 0" fill="#0e65e5"/><path d="m20.480469 102.617188c-7.539063 0-13.652344-6.113282-13.652344-13.652344v-40.441406c0-22.875 18.605469-41.480469 41.480469-41.480469h34.097656c7.539062 0 13.652344 6.113281 13.652344 13.65625 0 7.539062-6.113282 13.652343-13.652344 13.652343h-34.097656c-7.816406 0-14.175782 6.359376-14.175782 14.171876v40.441406c0 7.539062-6.113281 13.652344-13.652343 13.652344zm0 0" fill="#d7e9ff"/><path d="m20.480469 109.445312c-11.292969 0-20.480469-9.1875-20.480469-20.480468v-40.441406c0-26.632813 21.675781-48.304688 48.308594-48.304688h34.097656c11.292969 0 20.480469 9.1875 20.480469 20.480469s-9.1875 20.476562-20.480469 20.476562h-34.097656c-4.054688 0-7.347656 3.296875-7.347656 7.347657v40.441406c0 11.292968-9.1875 20.480468-20.480469 20.480468zm27.828125-95.574218c-19.109375 0-34.65625 15.546875-34.65625 34.652344v40.441406c0 3.765625 3.0625 6.824218 6.828125 6.824218s6.828125-3.058593 6.828125-6.824218v-40.441406c0-11.578126 9.417968-21 21-21h34.097656c3.765625 0 6.828125-3.058594 6.828125-6.824219 0-3.769531-3.0625-6.828125-6.828125-6.828125zm0 0" fill="#0e65e5"/><path d="m375.953125 102.617188c7.542969 0 13.65625-6.113282 13.65625-13.652344v-40.441406c0-22.875-18.609375-41.480469-41.480469-41.480469h-34.101562c-7.539063 0-13.652344 6.113281-13.652344 13.65625 0 7.539062 6.113281 13.652343 13.652344 13.652343h34.101562c7.8125 0 14.171875 6.359376 14.171875 14.171876v40.441406c0 7.539062 6.113281 13.652344 13.652344 13.652344zm0 0" fill="#d7e9ff"/><path d="m375.953125 109.445312c-11.292969 0-20.476563-9.1875-20.476563-20.480468v-40.441406c0-4.050782-3.296874-7.347657-7.347656-7.347657h-34.101562c-11.292969 0-20.480469-9.183593-20.480469-20.476562s9.1875-20.480469 20.480469-20.480469h34.101562c26.632813 0 48.304688 21.671875 48.304688 48.304688v40.441406c0 11.292968-9.1875 20.480468-20.480469 20.480468zm-61.925781-95.574218c-3.765625 0-6.828125 3.058594-6.828125 6.828125 0 3.765625 3.0625 6.824219 6.828125 6.824219h34.097656c11.582031 0 21 9.421874 21 21v40.441406c0 3.765625 3.0625 6.824218 6.828125 6.824218s6.828125-3.058593 6.828125-6.824218v-40.441406c0-19.105469-15.546875-34.652344-34.65625-34.652344zm0 0" fill="#0e65e5"/><path d="m20.480469 150.402344c-7.539063 0-13.652344 6.113281-13.652344 13.65625v40.4375c0 22.875 18.605469 41.480468 41.480469 41.480468h34.097656c7.539062 0 13.652344-6.113281 13.652344-13.652343 0-7.539063-6.113282-13.652344-13.652344-13.652344h-34.097656c-7.816406 0-14.175782-6.363281-14.175782-14.175781v-40.4375c0-7.542969-6.113281-13.65625-13.652343-13.65625zm0 0" fill="#d7e9ff"/><path d="m82.40625 252.804688h-34.097656c-26.632813 0-48.308594-21.671876-48.308594-48.308594v-40.4375c0-11.292969 9.1875-20.480469 20.480469-20.480469s20.480469 9.1875 20.480469 20.480469v40.4375c0 4.054687 3.292968 7.347656 7.347656 7.347656h34.097656c11.292969 0 20.480469 9.1875 20.480469 20.480469s-9.1875 20.480469-20.480469 20.480469zm-61.925781-95.574219c-3.765625 0-6.828125 3.058593-6.828125 6.828125v40.4375c0 19.105468 15.546875 34.65625 34.65625 34.65625h34.097656c3.765625 0 6.828125-3.0625 6.828125-6.828125s-3.0625-6.828125-6.828125-6.828125h-34.097656c-11.582032 0-21-9.417969-21-21v-40.4375c0-3.769532-3.0625-6.828125-6.828125-6.828125zm0 0" fill="#0e65e5"/><path d="m375.953125 150.402344c7.542969 0 13.65625 6.113281 13.65625 13.65625v40.4375c0 22.875-18.605469 41.480468-41.480469 41.480468h-34.101562c-7.539063 0-13.652344-6.113281-13.652344-13.652343 0-7.539063 6.113281-13.652344 13.652344-13.652344h34.101562c7.8125 0 14.171875-6.363281 14.171875-14.175781v-40.4375c0-7.542969 6.113281-13.65625 13.652344-13.65625zm0 0" fill="#d7e9ff"/><g fill="#0e65e5"><path d="m348.128906 252.804688h-34.101562c-11.292969 0-20.480469-9.1875-20.480469-20.480469s9.1875-20.480469 20.480469-20.480469h34.101562c4.050782 0 7.347656-3.292969 7.347656-7.347656v-40.4375c0-11.292969 9.183594-20.480469 20.476563-20.480469s20.480469 9.1875 20.480469 20.480469v40.4375c0 26.636718-21.671875 48.308594-48.304688 48.308594zm-34.101562-27.308594c-3.765625 0-6.828125 3.0625-6.828125 6.828125s3.0625 6.828125 6.828125 6.828125h34.097656c19.105469 0 34.65625-15.546875 34.65625-34.65625v-40.4375c0-3.769532-3.0625-6.828125-6.828125-6.828125s-6.828125 3.058593-6.828125 6.828125v40.4375c0 11.582031-9.417969 21-21 21zm0 0"/><path d="m64.925781 61.691406h16.679688c7.605469 0 13.125 1.082032 16.558593 3.246094 3.433594 2.160156 5.148438 5.601562 5.148438 10.320312 0 3.199219-.746094 5.828126-2.253906 7.878907-1.5 2.054687-3.5 3.292969-5.992188 3.707031v.367188c3.398438.761718 5.847656 2.171874 7.355469 4.253906 1.5 2.078125 2.25 4.839844 2.25 8.285156 0 4.886719-1.765625 8.699219-5.296875 11.441406-3.535156 2.738282-8.328125 4.105469-14.394531 4.105469h-20.054688zm11.367188 21.234375h6.601562c3.082031 0 5.3125-.480469 6.695313-1.433593 1.378906-.957032 2.070312-2.527344 2.070312-4.730469 0-2.050781-.75-3.523438-2.257812-4.417969-1.5-.894531-3.878906-1.339844-7.128906-1.339844h-5.980469zm0 9.011719v13.972656h7.410156c3.125 0 5.441406-.601562 6.929687-1.800781 1.488282-1.191406 2.234376-3.023437 2.234376-5.492187 0-4.453126-3.179688-6.679688-9.53125-6.679688zm0 0"/><path d="m140.535156 115.296875-2.167968-5.574219h-.292969c-1.882813 2.375-3.8125 4.015625-5.808594 4.933594-1.992187.914062-4.589844 1.375-7.792969 1.375-3.933594 0-7.03125-1.125-9.292968-3.375-2.257813-2.246094-3.390626-5.453125-3.390626-9.605469 0-4.355469 1.519532-7.558593 4.566407-9.628906 3.039062-2.066406 7.632812-3.207031 13.765625-3.425781l7.113281-.21875v-1.800782c0-4.15625-2.125-6.226562-6.378906-6.226562-3.273438 0-7.128907.988281-11.554688 2.964844l-3.699219-7.550782c4.71875-2.46875 9.945313-3.707031 15.691407-3.707031 5.5 0 9.714843 1.199219 12.648437 3.597657 2.933594 2.394531 4.398438 6.035156 4.398438 10.917968v27.320313h-7.804688zm-3.300781-18.992187-4.324219.148437c-3.253906.097656-5.675781.683594-7.261718 1.757813-1.585938 1.074218-2.386719 2.714843-2.386719 4.914062 0 3.152344 1.8125 4.730469 5.429687 4.730469 2.59375 0 4.664063-.746094 6.21875-2.238281 1.554688-1.492188 2.328125-3.472657 2.328125-5.9375v-3.375zm0 0"/><path d="m176.5 116.03125c-12.761719 0-19.140625-7-19.140625-21.011719 0-6.960937 1.734375-12.289062 5.207031-15.96875 3.472656-3.679687 8.445313-5.511719 14.925782-5.511719 4.742187 0 8.996093.925782 12.761718 2.789063l-3.308594 8.652344c-1.757812-.714844-3.390624-1.296875-4.90625-1.746094-1.519531-.457031-3.03125-.679687-4.546874-.679687-5.820313 0-8.730469 4.132812-8.730469 12.398437 0 8.015625 2.910156 12.027344 8.730469 12.027344 2.148437 0 4.140624-.292969 5.972656-.867188 1.835937-.574219 3.667968-1.472656 5.503906-2.691406v9.570313c-1.808594 1.148437-3.636719 1.941406-5.480469 2.382812-1.847656.441406-4.175781.65625-6.988281.65625zm0 0"/><path d="m209.214844 93.003906 4.871094-6.234375 11.472656-12.464843h12.617187l-16.28125 17.777343 17.273438 23.214844h-12.90625l-11.808594-16.613281-4.796875 3.855468v12.761719h-11.1875v-57.058593h11.1875v25.449218l-.585938 9.3125zm0 0"/><path d="m281.808594 107.125c1.957031 0 4.304687-.433594 7.039062-1.289062v8.328124c-2.785156 1.242188-6.207031 1.867188-10.265625 1.867188-4.46875 0-7.726562-1.132812-9.769531-3.390625-2.039062-2.261719-3.058594-5.652344-3.058594-10.175781v-19.765625h-5.359375v-4.726563l6.15625-3.742187 3.230469-8.652344h7.152344v8.726563h11.472656v8.394531h-11.472656v19.765625c0 1.585937.445312 2.761718 1.339844 3.519531.890624.757813 2.066406 1.140625 3.535156 1.140625zm0 0"/><path d="m334.386719 94.722656c0 6.679688-1.757813 11.894532-5.28125 15.660156-3.519531 3.769532-8.417969 5.648438-14.703125 5.648438-3.9375 0-7.402344-.859375-10.414063-2.585938-3.003906-1.722656-5.316406-4.199218-6.929687-7.429687-1.613282-3.226563-2.417969-6.984375-2.417969-11.292969 0-6.691406 1.746094-11.898437 5.238281-15.609375 3.5-3.722656 8.414063-5.574219 14.746094-5.574219 3.933594 0 7.402344.851563 10.414062 2.558594 3 1.714844 5.3125 4.171875 6.929688 7.371094 1.613281 3.203125 2.417969 6.953125 2.417969 11.253906zm-28.34375 0c0 4.0625.664062 7.128906 2 9.207032 1.332031 2.082031 3.503906 3.113281 6.503906 3.113281 2.988281 0 5.132813-1.027344 6.441406-3.089844 1.304688-2.066406 1.957031-5.140625 1.957031-9.226563 0-4.054687-.660156-7.101562-1.980468-9.128906-1.316406-2.027344-3.484375-3.046875-6.484375-3.046875-2.988281 0-5.136719 1.015625-6.453125 3.027344-1.320313 2.019531-1.984375 5.066406-1.984375 9.144531zm0 0"/><path d="m113.746094 176.871094c0 4.839844-1.738282 8.652344-5.21875 11.441406-3.488282 2.785156-8.335938 4.179688-14.542969 4.179688-5.71875 0-10.777344-1.074219-15.179687-3.230469v-10.558594c3.621093 1.613281 6.679687 2.746094 9.1875 3.414063 2.507812.652343 4.792968.984374 6.871093.984374 2.496094 0 4.410157-.480468 5.742188-1.425781 1.332031-.960937 1.992187-2.375 1.992187-4.253906 0-1.050781-.292968-1.984375-.878906-2.808594-.589844-.820312-1.449219-1.605469-2.582031-2.367187-1.140625-.757813-3.453125-1.964844-6.953125-3.625-3.273438-1.546875-5.726563-3.019532-7.367188-4.441406-1.636718-1.417969-2.945312-3.066407-3.925781-4.945313-.972656-1.886719-1.464844-4.085937-1.464844-6.601563 0-4.746093 1.613281-8.472656 4.824219-11.183593 3.214844-2.714844 7.652344-4.070313 13.328125-4.070313 2.789063 0 5.445313.328125 7.972656.988282 2.535157.660156 5.179688 1.585937 7.941407 2.785156l-3.667969 8.84375c-2.859375-1.175782-5.222657-1.996094-7.089844-2.460938-1.875-.464844-3.714844-.699218-5.519531-.699218-2.15625 0-3.800782.507812-4.949219 1.507812-1.152344 1-1.726563 2.304688-1.726563 3.917969 0 1.007812.234376 1.882812.699219 2.628906.460938.746094 1.203125 1.464844 2.214844 2.160156 1.015625.699219 3.421875 1.953125 7.207031 3.757813 5.015625 2.394531 8.445313 4.800781 10.300782 7.207031 1.859374 2.40625 2.785156 5.363281 2.785156 8.855469zm0 0"/><path d="m139.234375 192.492188c-12.761719 0-19.140625-7.003907-19.140625-21.015626 0-6.957031 1.734375-12.285156 5.207031-15.964843 3.472657-3.679688 8.445313-5.511719 14.925781-5.511719 4.738282 0 8.992188.925781 12.761719 2.785156l-3.308593 8.652344c-1.757813-.710938-3.394532-1.292969-4.90625-1.742188-1.519532-.457031-3.03125-.679687-4.546876-.679687-5.820312 0-8.734374 4.132813-8.734374 12.398437 0 8.011719 2.914062 12.027344 8.734374 12.027344 2.148438 0 4.140626-.292968 5.972657-.867187s3.667969-1.472657 5.5-2.691407v9.570313c-1.804688 1.148437-3.632813 1.941406-5.480469 2.382813-1.84375.441406-4.171875.65625-6.984375.65625zm0 0"/><path d="m199.039062 191.757812h-11.1875v-23.949218c0-5.910156-2.199218-8.863282-6.597656-8.863282-3.128906 0-5.386718 1.058594-6.78125 3.183594-1.394531 2.128906-2.085937 5.574219-2.085937 10.34375v19.285156h-11.1875v-57.054687h11.1875v11.628906c0 .898438-.089844 3.023438-.261719 6.371094l-.257812 3.308594h.585937c2.492187-4.015625 6.453125-6.015625 11.878906-6.015625 4.820313 0 8.476563 1.296875 10.96875 3.882812 2.492188 2.59375 3.738281 6.304688 3.738281 11.144532zm0 0"/><path d="m247.808594 171.183594c0 6.679687-1.761719 11.894531-5.28125 15.660156-3.519532 3.769531-8.421875 5.648438-14.707032 5.648438-3.933593 0-7.398437-.859376-10.414062-2.585938-3-1.722656-5.3125-4.203125-6.925781-7.429688-1.613281-3.226562-2.421875-6.984374-2.421875-11.292968 0-6.691406 1.746094-11.898438 5.242187-15.613282 3.5-3.71875 8.414063-5.574218 14.746094-5.574218 3.933594 0 7.398437.855468 10.414063 2.5625 3 1.710937 5.3125 4.171875 6.925781 7.371094 1.617187 3.199218 2.421875 6.953124 2.421875 11.253906zm-28.347656 0c0 4.0625.667968 7.128906 2 9.207031 1.332031 2.082031 3.507812 3.113281 6.503906 3.113281 2.988281 0 5.136718-1.027344 6.441406-3.089844 1.304688-2.066406 1.957031-5.140624 1.957031-9.226562 0-4.054688-.660156-7.101562-1.976562-9.128906-1.320313-2.027344-3.488281-3.046875-6.488281-3.046875-2.988282 0-5.132813 1.015625-6.453126 3.027343-1.316406 2.019532-1.984374 5.066407-1.984374 9.144532zm0 0"/><path d="m294.300781 171.183594c0 6.679687-1.757812 11.894531-5.28125 15.660156-3.519531 3.769531-8.417969 5.648438-14.707031 5.648438-3.933594 0-7.398438-.859376-10.414062-2.585938-3-1.722656-5.3125-4.203125-6.925782-7.429688-1.613281-3.226562-2.417968-6.984374-2.417968-11.292968 0-6.691406 1.742187-11.898438 5.238281-15.613282 3.5-3.71875 8.414062-5.574218 14.746093-5.574218 3.933594 0 7.402344.855468 10.414063 2.5625 3 1.710937 5.3125 4.171875 6.929687 7.371094 1.613282 3.199218 2.417969 6.953124 2.417969 11.253906zm-28.347656 0c0 4.0625.667969 7.128906 2 9.207031 1.332031 2.082031 3.507813 3.113281 6.507813 3.113281 2.984374 0 5.132812-1.027344 6.4375-3.089844 1.304687-2.066406 1.960937-5.140624 1.960937-9.226562 0-4.054688-.660156-7.101562-1.980469-9.128906-1.320312-2.027344-3.488281-3.046875-6.488281-3.046875-2.984375 0-5.132813 1.015625-6.453125 3.027343-1.316406 2.019532-1.984375 5.066407-1.984375 9.144532zm0 0"/><path d="m314.726562 191.757812h-11.1875v-57.054687h11.1875zm0 0"/></g><path d="m259.414062 245.976562c-3.773437 0-6.828124-3.050781-6.828124-6.824218v-27.308594c0-3.773438 3.054687-6.828125 6.828124-6.828125 3.773438 0 6.824219 3.054687 6.824219 6.828125v27.308594c0 3.773437-3.050781 6.824218-6.824219 6.824218zm0 0" fill="#fff"/><path d="m273.066406 232.324219h-27.304687c-3.773438 0-6.828125-3.054688-6.828125-6.828125 0-3.773438 3.054687-6.824219 6.828125-6.824219h27.304687c3.773438 0 6.828125 3.050781 6.828125 6.824219 0 3.773437-3.054687 6.828125-6.828125 6.828125zm0 0" fill="#fff"/><path d="m177.492188 48.003906h-61.4375c-3.773438 0-6.828126-3.054687-6.828126-6.828125 0-3.773437 3.054688-6.824219 6.828126-6.824219h61.4375c3.773437 0 6.828124 3.050782 6.828124 6.824219 0 3.773438-3.054687 6.828125-6.828124 6.828125zm0 0" fill="#fff"/></svg>