<svg height="512pt" viewBox="0 0 512 512" width="512pt" xmlns="http://www.w3.org/2000/svg"><path d="m462 292c0-79.027344-53.933594-145.464844-127.003906-164.511719-4.289063-.324219-8.625-.488281-12.996094-.488281-93.070312 0-170 75.429688-170 170 0 79.027344 53.933594 145.464844 127.003906 164.511719 4.289063.324219 8.625.488281 12.996094.488281 93.882812 0 170-76.109375 170-170zm0 0" fill="#e0f4ff"/><path d="m370.347656 97.117188c-17.335937-4.632813-35.550781-7.117188-54.347656-7.117188-29.328125 0-69.179688 11.503906-88 21-34.980469 17.648438-105.269531 106.359375-105.269531 106.359375l-.058594.5c-10.730469 25.230469-16.671875 52.992187-16.671875 82.140625 0 88.28125 54.480469 163.828125 131.652344 194.882812 17.335937 4.632813 35.550781 7.117188 54.347656 7.117188 115.980469 0 210-94.019531 210-210 0-88.28125-54.480469-163.828125-131.652344-194.882812zm-76.347656 363.882812c-93.890625 0-170-76.117188-170-170 0-94.570312 76.929688-170 170-170 93.890625 0 170 76.117188 170 170 0 93.890625-76.117188 170-170 170zm0 0" fill="#7ed8f6"/><path d="m37 116.96875c0 42.003906 25.902344 77.953125 62.597656 92.757812 57.386719 4.433594 107.402344-41.273437 107.402344-99.726562 0-41.765625-25.738281-77.886719-62.546875-92.757812-2.460937-.179688-4.945313-.273438-7.453125-.273438-55.230469 0-100 44.769531-100 100zm0 0" fill="#fdbf00"/><path d="m451 143c0 5.523438-4.476562 10-10 10s-10-4.476562-10-10 4.476562-10 10-10 10 4.476562 10 10zm0 0"/><path d="m460.308594 165.992188c-4.570313 3.101562-5.765625 9.316406-2.664063 13.890624 22.476563 33.136719 34.355469 71.90625 34.355469 112.117188 0 110.28125-89.71875 200-200 200s-200-89.71875-200-200c0-24.917969 4.515625-49.140625 13.402344-72.105469 1.527344.0625 3.058594.105469 4.597656.105469 5.953125 0 11.839844-.476562 17.625-1.40625-10.261719 22.972656-15.625 47.953125-15.625 73.40625 0 99.363281 80.527344 180 180 180 98.746094 0 180-79.914062 180-180 0-48.070312-18.722656-93.273438-52.71875-127.28125-34.007812-33.996094-79.210938-52.71875-127.28125-52.71875-25.453125 0-50.433594 5.363281-73.40625 15.628906.929688-5.789062 1.40625-11.675781 1.40625-17.628906 0-1.53125-.042969-3.066406-.105469-4.597656 22.949219-8.886719 47.167969-13.402344 72.105469-13.402344 40.210938 0 78.980469 11.878906 112.117188 34.355469 4.554687 3.085937 10.777343 1.925781 13.890624-2.664063 3.101563-4.570312 1.90625-10.789062-2.660156-13.886718-36.464844-24.734376-79.117187-37.804688-123.347656-37.804688-25.804688 0-50.917969 4.398438-74.839844 13.066406-11.351562-49.300781-55.355468-85.066406-107.160156-85.066406-60.652344 0-110 49.347656-110 110 0 51.785156 35.792969 95.820312 85.066406 107.160156-8.667968 23.933594-13.066406 49.050782-13.066406 74.839844 0 121.589844 98.394531 220 220 220 121.589844 0 220-98.394531 220-220 0-44.230469-13.070312-86.882812-37.804688-123.347656-3.101562-4.570313-9.316406-5.757813-13.886718-2.660156zm-249.550782-11.835938c21.675782-12.800781 46.066407-20.265625 71.242188-21.832031v29.675781c0 5.523438 4.476562 10 10 10s10-4.476562 10-10v-29.683594c35.652344 2.1875 69.078125 16.03125 95.84375 39.699219l-20.996094 20.992187c-3.902344 3.90625-3.902344 10.238282 0 14.144532 3.910156 3.90625 10.238282 3.902344 14.144532 0l20.992187-20.992188c23.667969 26.765625 37.511719 60.1875 39.699219 95.839844h-29.683594c-5.523438 0-10 4.480469-10 10 0 5.523438 4.476562 9.992188 10 9.992188h29.683594c-2.1875 35.652343-16.03125 69.085937-39.699219 95.851562l-20.992187-20.992188c-3.90625-3.90625-10.238282-3.90625-14.144532 0-3.90625 3.902344-3.90625 10.234376 0 14.140626l20.992188 20.992187c-26.765625 23.671875-60.1875 37.515625-95.839844 39.699219v-29.683594c0-5.523438-4.480469-10-10-10-5.523438 0-10 4.476562-10 10v29.683594c-35.652344-2.1875-69.078125-16.03125-95.84375-39.699219l20.992188-20.992187c3.90625-3.90625 3.90625-10.238282 0-14.144532-3.902344-3.902344-10.234376-3.902344-14.140626 0l-20.992187 20.992188c-23.671875-26.765625-37.515625-60.1875-39.699219-95.839844h29.683594c5.523438 0 10-4.480469 10-10 0-5.523438-4.476562-10-10-10h-29.675781c1.566406-25.179688 9.03125-49.566406 21.832031-71.242188 25.191406-11.054687 45.554688-31.417968 56.601562-56.601562zm-190.757812-44.15625c0-49.625 40.375-90 90-90 49.730469 0 90 40.097656 90 90 0 49.890625-40.519531 90-90 90-49.792969 0-90-40.191406-90-90zm0 0"/><path d="m292 302h80c5.523438 0 10-4.476562 10-10s-4.476562-10-10-10h-70v-70c0-5.523438-4.476562-10-10-10s-10 4.476562-10 10v80c0 5.523438 4.476562 10 10 10zm0 0"/><path d="m70 60c-5.523438 0-10 4.476562-10 10v80c0 5.523438 4.476562 10 10 10s10-4.476562 10-10v-80c0-5.523438-4.476562-10-10-10zm0 0"/><path d="m130 160c16.542969 0 30-13.457031 30-30v-40c0-16.574219-13.425781-30-30-30-16.542969 0-30 13.457031-30 30v40c0 16.542969 13.457031 30 30 30zm-10-70c0-5.515625 4.484375-10 10-10 5.519531 0 10 4.476562 10 10v40c0 5.515625-4.484375 10-10 10s-10-4.484375-10-10zm0 0"/></svg>